# Blender 5.2.2 LTS
# www.blender.org
mtllib magezineV3.mtl
o Cube.006
v -0.013030 -0.641074 -0.070153
v -0.051921 -0.646578 -0.070153
v -0.041591 -0.439262 -0.070153
v -0.080482 -0.444766 -0.070153
v -0.013030 -0.641074 0.035152
v -0.051921 -0.646578 0.035152
v -0.041591 -0.439262 0.035152
v -0.080482 -0.444766 0.035152
v -0.063962 -0.475820 0.098776
v -0.083476 0.178723 0.098776
v -0.063962 -0.475820 -0.118449
v -0.083476 0.178723 -0.118449
v 0.299381 -0.489470 0.098776
v 0.279867 0.165073 0.098776
v 0.299381 -0.489470 -0.118449
v 0.279867 0.165073 -0.118449
v -0.033970 -0.633976 0.098776
v -0.065093 -0.474158 0.098776
v -0.033970 -0.633976 -0.118449
v -0.065093 -0.474158 -0.118449
v 0.392702 -0.536673 0.098776
v 0.361579 -0.376855 0.098776
v 0.392702 -0.536673 -0.118449
v 0.361579 -0.376855 -0.118449
v 0.290912 -0.410092 0.098776
v 0.247074 -0.260300 0.098776
v 0.290912 -0.410092 -0.118449
v 0.247074 -0.260300 -0.118449
v 0.361606 -0.382567 0.098776
v 0.317769 -0.232776 0.098776
v 0.361606 -0.382567 -0.118449
v 0.317769 -0.232776 -0.118449
v 0.258946 -0.312014 0.098776
v 0.240064 -0.028552 0.098776
v 0.258946 -0.312014 -0.118449
v 0.240064 -0.028552 -0.118449
v 0.334421 -0.310425 0.098776
v 0.315540 -0.026964 0.098776
v 0.334421 -0.310425 -0.118449
v 0.315540 -0.026964 -0.118449
v 0.241264 -0.037778 0.098776
v 0.228881 0.043214 0.098776
v 0.241264 -0.037778 -0.118449
v 0.228881 0.043214 -0.118449
v 0.315537 -0.025899 0.098776
v 0.303154 0.055092 0.098776
v 0.315537 -0.025899 -0.118449
v 0.303154 0.055092 -0.118449
v -0.040212 -0.446373 -0.070153
v -0.079640 -0.444892 -0.070153
v -0.055861 0.078553 -0.070153
v -0.095289 0.080034 -0.070153
v -0.040212 -0.446373 0.035152
v -0.079640 -0.444892 0.035152
v -0.055861 0.078553 0.035152
v -0.095289 0.080034 0.035152
v -0.091083 0.069443 -0.019588
v -0.090688 0.056216 0.010804
v -0.090294 0.042989 -0.019588
v -0.090688 0.056216 -0.049980
v -0.141416 0.058122 -0.019588
v -0.089878 0.029016 -0.019588
v -0.089483 0.015789 0.010804
v -0.089089 0.002562 -0.019588
v -0.089483 0.015789 -0.049980
v -0.140210 0.017695 -0.019588
v -0.088758 -0.008532 -0.019588
v -0.088364 -0.021759 0.010804
v -0.087970 -0.034986 -0.019588
v -0.088364 -0.021759 -0.049980
v -0.139091 -0.019853 -0.019588
v -0.087679 -0.044727 -0.019588
v -0.087285 -0.057954 0.010804
v -0.086891 -0.071181 -0.019588
v -0.087285 -0.057954 -0.049980
v -0.138012 -0.056048 -0.019588
v -0.086591 -0.081230 -0.019588
v -0.086197 -0.094457 0.010804
v -0.085802 -0.107684 -0.019588
v -0.086197 -0.094457 -0.049980
v -0.136924 -0.092552 -0.019588
v -0.085690 -0.111444 -0.019588
v -0.085296 -0.124671 0.010804
v -0.084902 -0.137898 -0.019588
v -0.085296 -0.124671 -0.049980
v -0.136023 -0.122766 -0.019588
v -0.084683 -0.145245 -0.019588
v -0.084288 -0.158472 0.010804
v -0.083894 -0.171699 -0.019588
v -0.084288 -0.158472 -0.049980
v -0.135015 -0.156567 -0.019588
v -0.083676 -0.179009 -0.019588
v -0.083282 -0.192236 0.010804
v -0.082887 -0.205463 -0.019588
v -0.083282 -0.192236 -0.049980
v -0.134009 -0.190330 -0.019588
v -0.082563 -0.216342 -0.019588
v -0.082169 -0.229569 0.010804
v -0.081774 -0.242796 -0.019588
v -0.082169 -0.229569 -0.049980
v -0.132896 -0.227664 -0.019588
v -0.081490 -0.252335 -0.019588
v -0.081096 -0.265562 0.010804
v -0.080701 -0.278789 -0.019588
v -0.081096 -0.265562 -0.049980
v -0.131823 -0.263656 -0.019588
v -0.080457 -0.286968 -0.019588
v -0.080063 -0.300195 0.010804
v -0.079669 -0.313422 -0.019588
v -0.080063 -0.300195 -0.049980
v -0.130790 -0.298290 -0.019588
v -0.079471 -0.320071 -0.019588
v -0.079076 -0.333298 0.010804
v -0.078682 -0.346525 -0.019588
v -0.079076 -0.333298 -0.049980
v -0.129803 -0.331393 -0.019588
v -0.078379 -0.356697 -0.019588
v -0.077984 -0.369925 0.010804
v -0.077590 -0.383152 -0.019588
v -0.077984 -0.369925 -0.049980
v -0.128711 -0.368019 -0.019588
v -0.077340 -0.391528 -0.019588
v -0.076946 -0.404756 0.010804
v -0.076552 -0.417983 -0.019588
v -0.076946 -0.404756 -0.049980
v -0.127673 -0.402850 -0.019588
v -0.076366 -0.424212 -0.019588
v -0.075972 -0.437439 0.010804
v -0.075577 -0.450666 -0.019588
v -0.075972 -0.437439 -0.049980
v -0.126699 -0.435534 -0.019588
v -0.073171 -0.453667 -0.019588
v -0.070546 -0.466631 0.010804
v -0.067921 -0.479595 -0.019588
v -0.070546 -0.466631 -0.049980
v -0.119864 -0.478501 -0.019588
v -0.068572 -0.493327 -0.019588
v -0.065947 -0.506291 0.010804
v -0.063322 -0.519255 -0.019588
v -0.065947 -0.506291 -0.049980
v -0.115266 -0.518161 -0.019588
v -0.064052 -0.531349 -0.019588
v -0.061428 -0.544313 0.010804
v -0.058803 -0.557278 -0.019588
v -0.061428 -0.544313 -0.049980
v -0.110746 -0.556184 -0.019588
v -0.059370 -0.572715 -0.019588
v -0.056745 -0.585679 0.010804
v -0.054121 -0.598643 -0.019588
v -0.056745 -0.585679 -0.049980
v -0.106064 -0.597549 -0.019588
v -0.053634 -0.613243 -0.019588
v -0.051009 -0.626207 0.010804
v -0.048384 -0.639171 -0.019588
v -0.051009 -0.626207 -0.049980
v -0.100327 -0.638077 -0.019588
vn -0.0000 -0.0000 -1.0000
vn -0.1401 0.9901 -0.0000
vn -0.0000 -0.0000 1.0000
vn 0.1401 -0.9901 -0.0000
vn 0.9901 0.1401 -0.0000
vn -0.9901 -0.1401 -0.0000
vn -0.9996 -0.0298 -0.0000
vn 0.9996 0.0298 -0.0000
vn -0.0375 -0.9993 -0.0000
vn 0.0375 0.9993 -0.0000
vn -0.9816 -0.1911 -0.0000
vn 0.9816 0.1911 -0.0000
vn 0.2223 -0.9750 -0.0000
vn -0.2223 0.9750 -0.0000
vn -0.9597 -0.2809 -0.0000
vn 0.9597 0.2809 -0.0000
vn 0.3628 -0.9319 -0.0000
vn -0.3628 0.9319 -0.0000
vn -0.9978 -0.0665 -0.0000
vn 0.9978 0.0665 -0.0000
vn 0.0210 -0.9998 -0.0000
vn -0.0210 0.9998 -0.0000
vn -0.9885 -0.1511 -0.0000
vn 0.9885 0.1511 -0.0000
vn 0.1579 -0.9875 -0.0000
vn -0.1579 0.9875 -0.0000
vn -0.2018 0.8971 0.3931
vn -0.2623 -0.8861 0.3822
vn -0.2623 -0.8861 -0.3822
vn -0.2018 0.8971 -0.3931
vn -0.4334 0.8148 0.3850
vn -0.0194 -0.9202 0.3909
vn 0.9801 0.1984 -0.0000
vn -0.0194 -0.9202 -0.3909
vn -0.4334 0.8148 -0.3850
vt 0.375000 0.000000
vt 0.625000 0.000000
vt 0.625000 0.250000
vt 0.375000 0.250000
vt 0.625000 0.500000
vt 0.375000 0.500000
vt 0.625000 0.750000
vt 0.375000 0.750000
vt 0.625000 1.000000
vt 0.375000 1.000000
vt 0.125000 0.500000
vt 0.125000 0.750000
vt 0.875000 0.500000
vt 0.875000 0.750000
vt 0.250000 0.490000
vt 0.250000 0.250000
vt 0.490000 0.250000
vt 0.250000 0.010000
vt 0.750000 0.490000
vt 0.990000 0.250000
vt 0.750000 0.010000
vt 0.510000 0.250000
vt 0.010000 0.250000
s 0
f 1/1/1 2/2/1 4/3/1 3/4/1
f 3/4/2 4/3/2 8/5/2 7/6/2
f 7/6/3 8/5/3 6/7/3 5/8/3
f 5/8/4 6/7/4 2/9/4 1/10/4
f 3/11/5 7/6/5 5/8/5 1/12/5
f 8/5/6 4/13/6 2/14/6 6/7/6
f 9/1/7 10/2/7 12/3/7 11/4/7
f 11/4/1 12/3/1 16/5/1 15/6/1
f 15/6/8 16/5/8 14/7/8 13/8/8
f 13/8/3 14/7/3 10/9/3 9/10/3
f 11/11/9 15/6/9 13/8/9 9/12/9
f 16/5/10 12/13/10 10/14/10 14/7/10
f 17/1/11 18/2/11 20/3/11 19/4/11
f 19/4/1 20/3/1 24/5/1 23/6/1
f 23/6/12 24/5/12 22/7/12 21/8/12
f 21/8/3 22/7/3 18/9/3 17/10/3
f 19/11/13 23/6/13 21/8/13 17/12/13
f 24/5/14 20/13/14 18/14/14 22/7/14
f 25/1/15 26/2/15 28/3/15 27/4/15
f 27/4/1 28/3/1 32/5/1 31/6/1
f 31/6/16 32/5/16 30/7/16 29/8/16
f 29/8/3 30/7/3 26/9/3 25/10/3
f 27/11/17 31/6/17 29/8/17 25/12/17
f 32/5/18 28/13/18 26/14/18 30/7/18
f 33/1/19 34/2/19 36/3/19 35/4/19
f 35/4/1 36/3/1 40/5/1 39/6/1
f 39/6/20 40/5/20 38/7/20 37/8/20
f 37/8/3 38/7/3 34/9/3 33/10/3
f 35/11/21 39/6/21 37/8/21 33/12/21
f 40/5/22 36/13/22 34/14/22 38/7/22
f 41/1/23 42/2/23 44/3/23 43/4/23
f 43/4/1 44/3/1 48/5/1 47/6/1
f 47/6/24 48/5/24 46/7/24 45/8/24
f 45/8/3 46/7/3 42/9/3 41/10/3
f 43/11/25 47/6/25 45/8/25 41/12/25
f 48/5/26 44/13/26 42/14/26 46/7/26
f 49/1/1 50/2/1 52/3/1 51/4/1
f 51/4/10 52/3/10 56/5/10 55/6/10
f 55/6/3 56/5/3 54/7/3 53/8/3
f 53/8/9 54/7/9 50/9/9 49/10/9
f 51/11/8 55/6/8 53/8/8 49/12/8
f 56/5/7 52/13/7 50/14/7 54/7/7
f 57/15/27 61/16/27 58/17/27
f 58/17/28 61/16/28 59/18/28
f 57/19/8 58/20/8 59/21/8 60/22/8
f 59/18/29 61/16/29 60/23/29
f 60/23/30 61/16/30 57/15/30
f 62/15/27 66/16/27 63/17/27
f 63/17/28 66/16/28 64/18/28
f 62/19/8 63/20/8 64/21/8 65/22/8
f 64/18/29 66/16/29 65/23/29
f 65/23/30 66/16/30 62/15/30
f 67/15/27 71/16/27 68/17/27
f 68/17/28 71/16/28 69/18/28
f 67/19/8 68/20/8 69/21/8 70/22/8
f 69/18/29 71/16/29 70/23/29
f 70/23/30 71/16/30 67/15/30
f 72/15/27 76/16/27 73/17/27
f 73/17/28 76/16/28 74/18/28
f 72/19/8 73/20/8 74/21/8 75/22/8
f 74/18/29 76/16/29 75/23/29
f 75/23/30 76/16/30 72/15/30
f 77/15/27 81/16/27 78/17/27
f 78/17/28 81/16/28 79/18/28
f 77/19/8 78/20/8 79/21/8 80/22/8
f 79/18/29 81/16/29 80/23/29
f 80/23/30 81/16/30 77/15/30
f 82/15/27 86/16/27 83/17/27
f 83/17/28 86/16/28 84/18/28
f 82/19/8 83/20/8 84/21/8 85/22/8
f 84/18/29 86/16/29 85/23/29
f 85/23/30 86/16/30 82/15/30
f 87/15/27 91/16/27 88/17/27
f 88/17/28 91/16/28 89/18/28
f 87/19/8 88/20/8 89/21/8 90/22/8
f 89/18/29 91/16/29 90/23/29
f 90/23/30 91/16/30 87/15/30
f 92/15/27 96/16/27 93/17/27
f 93/17/28 96/16/28 94/18/28
f 92/19/8 93/20/8 94/21/8 95/22/8
f 94/18/29 96/16/29 95/23/29
f 95/23/30 96/16/30 92/15/30
f 97/15/27 101/16/27 98/17/27
f 98/17/28 101/16/28 99/18/28
f 97/19/8 98/20/8 99/21/8 100/22/8
f 99/18/29 101/16/29 100/23/29
f 100/23/30 101/16/30 97/15/30
f 102/15/27 106/16/27 103/17/27
f 103/17/28 106/16/28 104/18/28
f 102/19/8 103/20/8 104/21/8 105/22/8
f 104/18/29 106/16/29 105/23/29
f 105/23/30 106/16/30 102/15/30
f 107/15/27 111/16/27 108/17/27
f 108/17/28 111/16/28 109/18/28
f 107/19/8 108/20/8 109/21/8 110/22/8
f 109/18/29 111/16/29 110/23/29
f 110/23/30 111/16/30 107/15/30
f 112/15/27 116/16/27 113/17/27
f 113/17/28 116/16/28 114/18/28
f 112/19/8 113/20/8 114/21/8 115/22/8
f 114/18/29 116/16/29 115/23/29
f 115/23/30 116/16/30 112/15/30
f 117/15/27 121/16/27 118/17/27
f 118/17/28 121/16/28 119/18/28
f 117/19/8 118/20/8 119/21/8 120/22/8
f 119/18/29 121/16/29 120/23/29
f 120/23/30 121/16/30 117/15/30
f 122/15/27 126/16/27 123/17/27
f 123/17/28 126/16/28 124/18/28
f 122/19/8 123/20/8 124/21/8 125/22/8
f 124/18/29 126/16/29 125/23/29
f 125/23/30 126/16/30 122/15/30
f 127/15/27 131/16/27 128/17/27
f 128/17/28 131/16/28 129/18/28
f 127/19/8 128/20/8 129/21/8 130/22/8
f 129/18/29 131/16/29 130/23/29
f 130/23/30 131/16/30 127/15/30
f 132/15/31 136/16/31 133/17/31
f 133/17/32 136/16/32 134/18/32
f 132/19/33 133/20/33 134/21/33 135/22/33
f 134/18/34 136/16/34 135/23/34
f 135/23/35 136/16/35 132/15/35
f 137/15/31 141/16/31 138/17/31
f 138/17/32 141/16/32 139/18/32
f 137/19/33 138/20/33 139/21/33 140/22/33
f 139/18/34 141/16/34 140/23/34
f 140/23/35 141/16/35 137/15/35
f 142/15/31 146/16/31 143/17/31
f 143/17/32 146/16/32 144/18/32
f 142/19/33 143/20/33 144/21/33 145/22/33
f 144/18/34 146/16/34 145/23/34
f 145/23/35 146/16/35 142/15/35
f 147/15/31 151/16/31 148/17/31
f 148/17/32 151/16/32 149/18/32
f 147/19/33 148/20/33 149/21/33 150/22/33
f 149/18/34 151/16/34 150/23/34
f 150/23/35 151/16/35 147/15/35
f 152/15/31 156/16/31 153/17/31
f 153/17/32 156/16/32 154/18/32
f 152/19/33 153/20/33 154/21/33 155/22/33
f 154/18/34 156/16/34 155/23/34
f 155/23/35 156/16/35 152/15/35
