# Blender 5.2.2 LTS
# www.blender.org
mtllib scopev3.mtl
o Cylinder
v 0.879157 0.143972 0.038632
v -3.138682 0.143972 0.038632
v 0.879157 0.133733 0.037722
v -3.138682 0.133733 0.037723
v 0.879157 0.123887 0.035028
v -3.138682 0.123887 0.035028
v 0.879157 0.114813 0.030652
v -3.138682 0.114813 0.030653
v 0.879157 0.106860 0.024764
v -3.138682 0.106860 0.024764
v 0.879157 0.100333 0.017588
v -3.138682 0.100333 0.017589
v 0.879157 0.095483 0.009402
v -3.138682 0.095483 0.009402
v 0.879157 0.092496 0.000519
v -3.138682 0.092496 0.000520
v 0.879157 0.091488 -0.008718
v -3.138682 0.091488 -0.008718
v 0.879157 0.092496 -0.017956
v -3.138682 0.092496 -0.017955
v 0.879157 0.095483 -0.026838
v -3.138682 0.095483 -0.026838
v 0.879157 0.100333 -0.035025
v -3.138682 0.100333 -0.035024
v 0.879157 0.106860 -0.042200
v -3.138682 0.106860 -0.042200
v 0.879157 0.114813 -0.048088
v -3.138682 0.114813 -0.048088
v 0.879157 0.123887 -0.052464
v -3.138682 0.123887 -0.052464
v 0.879157 0.133733 -0.055159
v -3.138682 0.133733 -0.055158
v 0.879157 0.143972 -0.056068
v -3.138682 0.143972 -0.056068
v 0.879157 0.154211 -0.055159
v -3.138682 0.154211 -0.055158
v 0.879157 0.164057 -0.052464
v -3.138682 0.164057 -0.052464
v 0.879157 0.173131 -0.048088
v -3.138682 0.173130 -0.048088
v 0.879157 0.181084 -0.042200
v -3.138682 0.181084 -0.042200
v 0.879157 0.187611 -0.035025
v -3.138682 0.187611 -0.035024
v 0.879157 0.192461 -0.026838
v -3.138682 0.192461 -0.026838
v 0.879157 0.195448 -0.017956
v -3.138682 0.195447 -0.017955
v 0.879157 0.196456 -0.008718
v -3.138682 0.196456 -0.008718
v 0.879157 0.195448 0.000519
v -3.138682 0.195447 0.000520
v 0.879157 0.192461 0.009402
v -3.138682 0.192461 0.009402
v 0.879157 0.187611 0.017588
v -3.138682 0.187611 0.017589
v 0.879157 0.181084 0.024764
v -3.138682 0.181084 0.024764
v 0.879157 0.173131 0.030652
v -3.138682 0.173130 0.030653
v 0.879157 0.164057 0.035028
v -3.138682 0.164057 0.035028
v 0.879157 0.154211 0.037722
v -3.138682 0.154211 0.037723
v -2.749033 0.143972 0.060344
v -3.038119 0.143972 0.060344
v -2.749033 0.132036 0.059039
v -3.038119 0.132036 0.059039
v -2.749033 0.120560 0.055176
v -3.038119 0.120560 0.055176
v -2.749033 0.109983 0.048902
v -3.038119 0.109983 0.048902
v -2.749033 0.100712 0.040459
v -3.038119 0.100712 0.040460
v -2.749033 0.093103 0.030172
v -3.038119 0.093103 0.030172
v -2.749033 0.087450 0.018435
v -3.038119 0.087450 0.018435
v -2.749033 0.083969 0.005700
v -3.038119 0.083968 0.005700
v -2.749033 0.082793 -0.007545
v -3.038119 0.082793 -0.007545
v -2.749033 0.083969 -0.020789
v -3.038119 0.083968 -0.020789
v -2.749033 0.087450 -0.033525
v -3.038119 0.087450 -0.033525
v -2.749033 0.093103 -0.045262
v -3.038119 0.093103 -0.045262
v -2.749033 0.100712 -0.055549
v -3.038119 0.100712 -0.055549
v -2.749033 0.109983 -0.063992
v -3.038119 0.109983 -0.063992
v -2.749033 0.120560 -0.070266
v -3.038119 0.120560 -0.070265
v -2.749033 0.132036 -0.074129
v -3.038119 0.132036 -0.074129
v -2.749033 0.143972 -0.075433
v -3.038119 0.143972 -0.075433
v -2.749033 0.155907 -0.074129
v -3.038119 0.155907 -0.074129
v -2.749033 0.167384 -0.070266
v -3.038119 0.167384 -0.070265
v -2.749033 0.177961 -0.063992
v -3.038119 0.177961 -0.063992
v -2.749033 0.187232 -0.055549
v -3.038119 0.187232 -0.055549
v -2.749033 0.194840 -0.045262
v -3.038119 0.194840 -0.045262
v -2.749033 0.200494 -0.033525
v -3.038119 0.200494 -0.033525
v -2.749033 0.203975 -0.020789
v -3.038119 0.203975 -0.020789
v -2.749033 0.205151 -0.007545
v -3.038119 0.205151 -0.007545
v -2.749033 0.203975 0.005700
v -3.038119 0.203975 0.005700
v -2.749033 0.200494 0.018435
v -3.038119 0.200494 0.018435
v -2.749033 0.194840 0.030172
v -3.038119 0.194840 0.030172
v -2.749033 0.187232 0.040459
v -3.038119 0.187232 0.040460
v -2.749033 0.177961 0.048902
v -3.038119 0.177961 0.048902
v -2.749033 0.167384 0.055176
v -3.038119 0.167384 0.055176
v -2.749033 0.155907 0.059039
v -3.038119 0.155907 0.059039
v -2.980772 0.080497 0.119079
v -2.980772 0.213176 0.119079
v -2.980772 0.080497 -0.113903
v -2.980772 0.213176 -0.113903
v -2.800903 0.080497 0.119079
v -2.800903 0.213176 0.119079
v -2.800903 0.080497 -0.113903
v -2.800903 0.213176 -0.113903
v -2.814900 0.143458 -0.006306
v -2.927985 0.209759 -0.006306
v -2.927985 0.077156 -0.006306
v -2.890290 0.143458 -0.383077
v -2.956929 0.143458 0.002056
v -2.843844 0.209759 0.002056
v -2.843844 0.077156 0.002056
v -2.881539 0.143458 0.378828
v -2.928460 0.141041 -0.017626
v -2.837239 0.141041 -0.058348
v -2.862513 0.141041 0.057410
v -2.876070 0.401188 -0.006188
v 0.836185 0.130776 -0.039963
v 0.977736 0.044287 -0.039963
v 0.836185 0.130776 0.018972
v 0.977736 0.044287 0.018972
v 0.871507 0.188586 -0.039963
v 1.013058 0.102098 -0.039963
v 0.871507 0.188586 0.018972
v 1.013058 0.102098 0.018972
v 0.043334 0.310705 -0.094205
v 1.124509 0.310705 -0.094205
v 0.043334 0.293059 -0.092562
v 1.124509 0.293059 -0.092562
v 0.043334 0.276090 -0.087698
v 1.124509 0.276090 -0.087698
v 0.043334 0.260452 -0.079798
v 1.124509 0.260452 -0.079798
v 0.043334 0.246746 -0.069166
v 1.124509 0.246746 -0.069166
v 0.043334 0.235497 -0.056212
v 1.124509 0.235497 -0.056212
v 0.043334 0.227138 -0.041432
v 1.124509 0.227138 -0.041432
v 0.043334 0.221991 -0.025396
v 1.124509 0.221991 -0.025396
v 0.043334 0.220253 -0.008718
v 1.124509 0.220253 -0.008718
v 0.043334 0.221991 0.007960
v 1.124509 0.221991 0.007960
v 0.043334 0.227138 0.023996
v 1.124509 0.227138 0.023996
v 0.043334 0.235497 0.038776
v 1.124509 0.235497 0.038776
v 0.043334 0.246746 0.051730
v 1.124509 0.246746 0.051730
v 0.043334 0.260452 0.062362
v 1.124509 0.260452 0.062362
v 0.043334 0.276090 0.070262
v 1.124509 0.276090 0.070262
v 0.043334 0.293059 0.075126
v 1.124509 0.293059 0.075126
v 0.043334 0.310705 0.076769
v 1.124509 0.310705 0.076769
v 0.043334 0.328351 0.075126
v 1.124509 0.328351 0.075126
v 0.043334 0.345319 0.070262
v 1.124509 0.345319 0.070262
v 0.043334 0.360957 0.062362
v 1.124509 0.360957 0.062362
v 0.043334 0.374664 0.051730
v 1.124509 0.374664 0.051730
v 0.043334 0.385913 0.038776
v 1.124509 0.385913 0.038776
v 0.043334 0.394272 0.023996
v 1.124509 0.394272 0.023996
v 0.043334 0.399419 0.007960
v 1.124509 0.399419 0.007960
v 0.043334 0.401157 -0.008718
v 1.124509 0.401157 -0.008718
v 0.043334 0.399419 -0.025396
v 1.124509 0.399419 -0.025396
v 0.043334 0.394272 -0.041432
v 1.124509 0.394272 -0.041432
v 0.043334 0.385913 -0.056212
v 1.124509 0.385913 -0.056212
v 0.043334 0.374664 -0.069166
v 1.124509 0.374664 -0.069166
v 0.043334 0.360957 -0.079798
v 1.124509 0.360957 -0.079798
v 0.043334 0.345319 -0.087698
v 1.124509 0.345319 -0.087698
v 0.043334 0.328351 -0.092562
v 1.124509 0.328351 -0.092562
v 0.271277 0.148252 -0.034199
v 0.271277 0.150223 0.020986
v 0.271277 0.226907 -0.037009
v 0.271277 0.228878 0.018176
v 0.832063 0.148252 -0.034199
v 0.832063 0.150223 0.020986
v 0.832063 0.226907 -0.037009
v 0.832063 0.228878 0.018176
v 0.825064 0.227750 -0.025797
v 0.845928 0.245686 -0.050479
v 0.804200 0.245686 -0.050479
v 0.825064 0.070219 -0.165414
v 0.328678 0.234157 -0.025797
v 0.349542 0.252093 -0.050479
v 0.307814 0.252093 -0.050479
v 0.328678 0.076626 -0.165414
v 0.347013 0.234157 -0.025797
v 0.367877 0.252093 -0.050479
v 0.326149 0.252093 -0.050479
v 0.347013 0.076626 -0.165414
v 0.384431 0.234157 -0.025797
v 0.405295 0.252093 -0.050479
v 0.363567 0.252093 -0.050479
v 0.384431 0.076626 -0.165414
v 0.432922 0.234157 -0.025797
v 0.453786 0.252093 -0.050479
v 0.412058 0.252093 -0.050479
v 0.432922 0.076626 -0.165414
v 0.485895 0.234157 -0.025797
v 0.506759 0.252093 -0.050479
v 0.465031 0.252093 -0.050479
v 0.485895 0.076626 -0.165414
v 0.530229 0.234157 -0.025797
v 0.551093 0.252093 -0.050479
v 0.509365 0.252093 -0.050479
v 0.530229 0.076626 -0.165414
v 0.580756 0.234157 -0.025797
v 0.601619 0.252093 -0.050479
v 0.559892 0.252093 -0.050479
v 0.580756 0.076626 -0.165414
v 0.624831 0.234157 -0.025797
v 0.645695 0.252093 -0.050479
v 0.603967 0.252093 -0.050479
v 0.624831 0.076626 -0.165414
v 0.673080 0.234157 -0.025797
v 0.693944 0.252093 -0.050479
v 0.652216 0.252093 -0.050479
v 0.673080 0.076626 -0.165414
v 0.726689 0.234157 -0.025797
v 0.747553 0.252093 -0.050479
v 0.705826 0.252093 -0.050479
v 0.726689 0.076626 -0.165414
v 0.777344 0.234157 -0.025797
v 0.798208 0.252093 -0.050479
v 0.756480 0.252093 -0.050479
v 0.777344 0.076626 -0.165414
v 0.327945 0.227750 0.003322
v 0.307081 0.245686 0.028004
v 0.348809 0.245686 0.028004
v 0.327945 0.070219 0.142939
v 0.824331 0.234157 0.003322
v 0.803467 0.252093 0.028004
v 0.845195 0.252093 0.028004
v 0.824331 0.076626 0.142939
v 0.805996 0.234157 0.003322
v 0.785132 0.252093 0.028004
v 0.826860 0.252093 0.028004
v 0.805996 0.076626 0.142939
v 0.768578 0.234157 0.003322
v 0.747714 0.252093 0.028004
v 0.789441 0.252093 0.028004
v 0.768578 0.076626 0.142939
v 0.720087 0.234157 0.003322
v 0.699223 0.252093 0.028004
v 0.740951 0.252093 0.028004
v 0.720087 0.076626 0.142939
v 0.667114 0.234157 0.003322
v 0.646250 0.252093 0.028004
v 0.687978 0.252093 0.028004
v 0.667114 0.076626 0.142939
v 0.622780 0.234157 0.003322
v 0.601916 0.252093 0.028004
v 0.643644 0.252093 0.028004
v 0.622780 0.076626 0.142939
v 0.572253 0.234157 0.003322
v 0.551389 0.252093 0.028004
v 0.593117 0.252093 0.028004
v 0.572253 0.076626 0.142939
v 0.528178 0.234157 0.003322
v 0.507314 0.252093 0.028004
v 0.549042 0.252093 0.028004
v 0.528178 0.076626 0.142939
v 0.479928 0.234157 0.003322
v 0.459065 0.252093 0.028004
v 0.500792 0.252093 0.028004
v 0.479928 0.076626 0.142939
v 0.426319 0.234157 0.003322
v 0.405455 0.252093 0.028004
v 0.447183 0.252093 0.028004
v 0.426319 0.076626 0.142939
v 0.375665 0.234157 0.003322
v 0.354801 0.252093 0.028004
v 0.396529 0.252093 0.028004
v 0.375665 0.076626 0.142939
v 0.377876 0.335860 -0.035127
v 0.431474 0.335860 0.026688
v 0.324278 0.335860 0.026688
v 0.377876 0.524794 0.006083
v 0.231618 0.299292 -0.035127
v 0.285216 0.299292 0.026688
v 0.178020 0.299292 0.026688
v 0.231618 0.488226 0.006083
v 0.726734 0.347097 -0.035127
v 0.780333 0.347097 0.026688
v 0.673136 0.347097 0.026688
v 0.726734 0.536031 0.006083
v 0.575010 0.305412 -0.035127
v 0.628608 0.305412 0.026688
v 0.521412 0.305412 0.026688
v 0.575010 0.494346 0.006083
v 0.575010 0.305412 -0.035127
v 0.628608 0.305412 0.026688
v 0.521412 0.305412 0.026688
v 0.575010 0.494346 0.006083
v 0.970801 0.305412 -0.035127
v 1.024399 0.305412 0.026688
v 0.917202 0.305412 0.026688
v 0.970801 0.494346 0.006083
v 0.822758 0.345140 -0.035127
v 0.876356 0.345140 0.026688
v 0.769160 0.345140 0.026688
v 0.822758 0.534074 0.006083
v 0.822758 0.356252 -0.012408
v 0.876356 0.342919 0.047952
v 0.769160 0.342919 0.047952
v 0.822758 0.531851 0.068582
v 0.721383 0.356252 -0.012408
v 0.774981 0.342919 0.047952
v 0.667784 0.342919 0.047952
v 0.721383 0.531851 0.068582
v 0.629634 0.306559 -0.012408
v 0.683232 0.293226 0.047952
v 0.576035 0.293226 0.047952
v 0.629634 0.482157 0.068582
v 0.503140 0.306559 -0.067152
v 0.556739 0.293226 -0.006792
v 0.449542 0.293226 -0.006792
v 0.503140 0.482157 0.013839
v 0.503140 0.306559 -0.011034
v 0.556739 0.293226 0.049326
v 0.449542 0.293226 0.049326
v 0.503140 0.482157 0.069956
v 0.302529 0.306559 -0.007878
v 0.356127 0.293226 0.052482
v 0.248931 0.293226 0.052482
v 0.302529 0.482157 0.073112
v 0.165059 0.306559 -0.007878
v 0.218657 0.293226 0.052482
v 0.111461 0.293226 0.052482
v 0.165059 0.482157 0.073112
v 1.036105 0.306559 -0.007878
v 1.089703 0.293226 0.052482
v 0.982507 0.293226 0.052482
v 1.036105 0.482157 0.073112
v 1.036105 0.306559 -0.007878
v 1.089703 0.293226 0.052482
v 0.982507 0.293226 0.052482
v 1.036105 0.482157 0.073112
v 0.822758 0.336801 -0.043716
v 0.876356 0.357443 0.014550
v 0.769160 0.357443 0.014550
v 0.822758 0.528652 -0.067962
v 0.931641 0.336556 -0.072580
v 0.985239 0.362189 -0.016331
v 0.878043 0.362189 -0.016331
v 0.931641 0.525569 -0.113425
v 0.796880 0.336556 -0.072580
v 0.850478 0.362189 -0.016331
v 0.743282 0.362189 -0.016331
v 0.796880 0.525569 -0.113425
v 0.639192 0.336556 -0.072580
v 0.692790 0.362189 -0.016331
v 0.585594 0.362189 -0.016331
v 0.639192 0.525569 -0.113425
v 0.498306 0.306401 -0.072580
v 0.551904 0.332034 -0.016331
v 0.444708 0.332034 -0.016331
v 0.498306 0.495415 -0.113425
v 0.393272 0.336556 -0.072580
v 0.446870 0.362189 -0.016331
v 0.339674 0.362189 -0.016331
v 0.393272 0.525569 -0.113425
v 0.248389 0.336556 -0.072580
v 0.301987 0.362189 -0.016331
v 0.194791 0.362189 -0.016331
v 0.248389 0.525569 -0.113425
v 0.248389 0.300146 -0.089285
v 0.301987 0.340182 -0.042187
v 0.194791 0.340182 -0.042187
v 0.248389 0.470788 -0.180255
v 0.156624 0.306615 -0.089285
v 0.210222 0.346651 -0.042187
v 0.103026 0.346651 -0.042187
v 0.156624 0.477257 -0.180255
v 0.350027 0.242400 -0.056639
v 0.403625 0.282436 -0.009541
v 0.296429 0.282436 -0.009541
v 0.350027 0.413042 -0.147609
v 0.791399 0.288354 -0.089285
v 0.844997 0.328390 -0.042187
v 0.737801 0.328390 -0.042187
v 0.791399 0.458996 -0.180255
v 0.791399 0.288354 -0.089285
v 0.844997 0.328390 -0.042187
v 0.737801 0.328390 -0.042187
v 0.791399 0.458996 -0.180255
vn -0.0000 -0.0000 1.0000
vn -0.0000 -0.1780 0.9840
vn -0.0000 -0.3528 0.9357
vn -0.0000 -0.5202 0.8540
vn -0.0000 -0.6747 0.7381
vn -0.0000 -0.8087 0.5883
vn -0.0000 -0.9128 0.4085
vn -0.0000 -0.9781 0.2082
vn -0.0000 -1.0000 -0.0000
vn -0.0000 -0.9781 -0.2082
vn -0.0000 -0.9128 -0.4085
vn -0.0000 -0.8087 -0.5883
vn -0.0000 -0.6747 -0.7381
vn -0.0000 -0.5202 -0.8540
vn -0.0000 -0.3528 -0.9357
vn -0.0000 -0.1780 -0.9840
vn -0.0000 -0.0000 -1.0000
vn -0.0000 0.1780 -0.9840
vn -0.0000 0.3528 -0.9357
vn -0.0000 0.5202 -0.8540
vn -0.0000 0.6747 -0.7381
vn -0.0000 0.8087 -0.5883
vn -0.0000 0.9128 -0.4085
vn -0.0000 0.9781 -0.2082
vn -0.0000 1.0000 -0.0000
vn -0.0000 0.9781 0.2082
vn -0.0000 0.9128 0.4085
vn -0.0000 0.8087 0.5883
vn -0.0000 0.6747 0.7381
vn -0.0000 0.5202 0.8540
vn -0.0000 0.3528 0.9357
vn -1.0000 -0.0000 -0.0000
vn -0.0000 0.1780 0.9840
vn 1.0000 -0.0000 -0.0000
vn -0.0000 -0.2170 0.9762
vn -0.0000 -0.4203 0.9074
vn -0.0000 -0.5990 0.8007
vn -0.0000 -0.7464 0.6655
vn -0.0000 -0.8598 0.5107
vn -0.0000 -0.9389 0.3443
vn -0.0000 -0.9850 0.1727
vn -0.0000 -0.9850 -0.1727
vn -0.0000 -0.9389 -0.3443
vn -0.0000 -0.8598 -0.5107
vn -0.0000 -0.7464 -0.6655
vn -0.0000 -0.5990 -0.8007
vn -0.0000 -0.4203 -0.9074
vn -0.0000 -0.2170 -0.9762
vn -0.0000 0.2170 -0.9762
vn -0.0000 0.4203 -0.9074
vn -0.0000 0.5990 -0.8007
vn -0.0000 0.7464 -0.6655
vn -0.0000 0.8598 -0.5107
vn -0.0000 0.9389 -0.3443
vn -0.0000 0.9850 -0.1727
vn -0.0000 0.9850 0.1727
vn -0.0000 0.9389 0.3443
vn -0.0000 0.8598 0.5107
vn -0.0000 0.7464 0.6655
vn -0.0000 0.5990 0.8007
vn -0.0000 0.4203 0.9074
vn -0.0000 0.2170 0.9762
vn 0.5032 0.8583 -0.1007
vn -0.9950 -0.0000 -0.0996
vn 0.5032 -0.8583 -0.1007
vn -0.5032 0.8583 0.1007
vn 0.9950 -0.0000 0.0996
vn -0.5032 -0.8583 0.1007
vn -0.4046 0.1213 -0.9064
vn 0.9718 0.1025 0.2122
vn -0.7456 0.1213 0.6553
vn -0.5214 -0.8533 -0.0000
vn 0.5214 0.8533 -0.0000
vn -0.8533 0.5214 -0.0000
vn 0.8533 -0.5214 -0.0000
vn -0.0000 -0.1862 -0.9825
vn -0.0000 -0.3673 -0.9301
vn -0.0000 -0.5378 -0.8431
vn -0.0000 -0.6915 -0.7224
vn -0.0000 -0.8211 -0.5707
vn -0.0000 -0.9193 -0.3935
vn -0.0000 -0.9799 -0.1997
vn -0.0000 -0.9799 0.1997
vn -0.0000 -0.9193 0.3935
vn -0.0000 -0.8211 0.5707
vn -0.0000 -0.6915 0.7224
vn -0.0000 -0.5378 0.8431
vn -0.0000 -0.3673 0.9301
vn -0.0000 -0.1862 0.9825
vn -0.0000 0.1862 0.9825
vn -0.0000 0.3673 0.9301
vn -0.0000 0.5378 0.8431
vn -0.0000 0.6915 0.7224
vn -0.0000 0.8211 0.5707
vn -0.0000 0.9193 0.3935
vn -0.0000 0.9799 0.1997
vn -0.0000 0.9799 -0.1997
vn -0.0000 0.9193 -0.3935
vn -0.0000 0.8211 -0.5707
vn -0.0000 0.6915 -0.7224
vn -0.0000 0.5378 -0.8431
vn -0.0000 0.3673 -0.9301
vn -0.0000 0.1862 -0.9825
vn -0.0000 0.9994 -0.0357
vn -0.0000 -0.9994 0.0357
vn -0.0000 -0.0357 -0.9994
vn -0.0000 0.0357 0.9994
vn 0.8242 -0.3756 0.4238
vn -0.0000 0.8090 0.5879
vn -0.0000 0.5479 -0.8365
vn -0.8242 -0.3756 0.4238
vn -0.8242 -0.3756 -0.4238
vn -0.0000 0.8090 -0.5879
vn -0.0000 0.5479 0.8365
vn 0.8242 -0.3756 -0.4238
vn 0.7479 0.1415 -0.6485
vn -0.0000 0.1084 0.9941
vn -0.7479 0.1415 -0.6485
vn 0.7479 0.2780 -0.6027
vn -0.0000 -0.9765 -0.2157
vn -0.0000 -0.1086 0.9941
vn -0.7479 0.2780 -0.6027
vn 0.7479 -0.0832 -0.6585
vn -0.0000 -0.9426 0.3339
vn -0.0000 0.4342 0.9008
vn -0.7479 -0.0832 -0.6585
vn 0.7479 -0.1402 -0.6488
vn -0.0000 -0.9100 0.4147
vn -0.0000 0.5109 0.8597
vn -0.7479 -0.1402 -0.6488
vn 0.7479 -0.3123 -0.5857
vn -0.0000 -0.7619 0.6477
vn -0.0000 0.7265 0.6872
vn -0.7479 -0.3123 -0.5857
vt 1.000000 0.500000
vt 1.000000 1.000000
vt 0.968750 1.000000
vt 0.968750 0.500000
vt 0.937500 1.000000
vt 0.937500 0.500000
vt 0.906250 1.000000
vt 0.906250 0.500000
vt 0.875000 1.000000
vt 0.875000 0.500000
vt 0.843750 1.000000
vt 0.843750 0.500000
vt 0.812500 1.000000
vt 0.812500 0.500000
vt 0.781250 1.000000
vt 0.781250 0.500000
vt 0.750000 1.000000
vt 0.750000 0.500000
vt 0.718750 1.000000
vt 0.718750 0.500000
vt 0.687500 1.000000
vt 0.687500 0.500000
vt 0.656250 1.000000
vt 0.656250 0.500000
vt 0.625000 1.000000
vt 0.625000 0.500000
vt 0.593750 1.000000
vt 0.593750 0.500000
vt 0.562500 1.000000
vt 0.562500 0.500000
vt 0.531250 1.000000
vt 0.531250 0.500000
vt 0.500000 1.000000
vt 0.500000 0.500000
vt 0.468750 1.000000
vt 0.468750 0.500000
vt 0.437500 1.000000
vt 0.437500 0.500000
vt 0.406250 1.000000
vt 0.406250 0.500000
vt 0.375000 1.000000
vt 0.375000 0.500000
vt 0.343750 1.000000
vt 0.343750 0.500000
vt 0.312500 1.000000
vt 0.312500 0.500000
vt 0.281250 1.000000
vt 0.281250 0.500000
vt 0.250000 1.000000
vt 0.250000 0.500000
vt 0.218750 1.000000
vt 0.218750 0.500000
vt 0.187500 1.000000
vt 0.187500 0.500000
vt 0.156250 1.000000
vt 0.156250 0.500000
vt 0.125000 1.000000
vt 0.125000 0.500000
vt 0.093750 1.000000
vt 0.093750 0.500000
vt 0.062500 1.000000
vt 0.062500 0.500000
vt 0.296822 0.485388
vt 0.250000 0.490000
vt 0.203178 0.485388
vt 0.158156 0.471731
vt 0.116663 0.449553
vt 0.080294 0.419706
vt 0.050447 0.383337
vt 0.028269 0.341844
vt 0.014612 0.296822
vt 0.010000 0.250000
vt 0.014612 0.203178
vt 0.028269 0.158156
vt 0.050447 0.116663
vt 0.080294 0.080294
vt 0.116663 0.050447
vt 0.158156 0.028269
vt 0.203178 0.014612
vt 0.250000 0.010000
vt 0.296822 0.014612
vt 0.341844 0.028269
vt 0.383337 0.050447
vt 0.419706 0.080294
vt 0.449553 0.116663
vt 0.471731 0.158156
vt 0.485388 0.203178
vt 0.490000 0.250000
vt 0.485388 0.296822
vt 0.471731 0.341844
vt 0.449553 0.383337
vt 0.419706 0.419706
vt 0.383337 0.449553
vt 0.341844 0.471731
vt 0.031250 1.000000
vt 0.031250 0.500000
vt 0.000000 1.000000
vt 0.000000 0.500000
vt 0.750000 0.490000
vt 0.796822 0.485388
vt 0.841844 0.471731
vt 0.883337 0.449553
vt 0.919706 0.419706
vt 0.949553 0.383337
vt 0.971731 0.341844
vt 0.985388 0.296822
vt 0.990000 0.250000
vt 0.985388 0.203178
vt 0.971731 0.158156
vt 0.949553 0.116663
vt 0.919706 0.080294
vt 0.883337 0.050447
vt 0.841844 0.028269
vt 0.796822 0.014612
vt 0.750000 0.010000
vt 0.703178 0.014612
vt 0.658156 0.028269
vt 0.616663 0.050447
vt 0.580294 0.080294
vt 0.550447 0.116663
vt 0.528269 0.158156
vt 0.514612 0.203178
vt 0.510000 0.250000
vt 0.514612 0.296822
vt 0.528269 0.341844
vt 0.550447 0.383337
vt 0.580294 0.419706
vt 0.616663 0.449553
vt 0.658156 0.471731
vt 0.703178 0.485388
vt 0.375000 0.000000
vt 0.625000 0.000000
vt 0.625000 0.250000
vt 0.375000 0.250000
vt 0.625000 0.750000
vt 0.375000 0.750000
vt 0.125000 0.750000
vt 0.875000 0.750000
vt 0.250000 0.250000
vt 0.457846 0.130000
vt 0.957846 0.130000
vt 0.542154 0.130000
vt 0.042154 0.130000
vt 0.457846 0.130000
vt 0.957846 0.130000
vt 0.542154 0.130000
vt 0.042154 0.130000
vt 0.296822 0.485388
vt 0.250000 0.490000
vt 0.203178 0.485388
vt 0.158156 0.471731
vt 0.116663 0.449553
vt 0.080294 0.419706
vt 0.050447 0.383337
vt 0.028269 0.341844
vt 0.014612 0.296822
vt 0.010000 0.250000
vt 0.014612 0.203178
vt 0.028269 0.158156
vt 0.050447 0.116663
vt 0.080294 0.080294
vt 0.116663 0.050447
vt 0.158156 0.028269
vt 0.203178 0.014612
vt 0.250000 0.010000
vt 0.296822 0.014612
vt 0.341844 0.028269
vt 0.383337 0.050447
vt 0.419706 0.080294
vt 0.449553 0.116663
vt 0.471731 0.158156
vt 0.485388 0.203178
vt 0.490000 0.250000
vt 0.485388 0.296822
vt 0.449553 0.383337
vt 0.419706 0.419706
vt 0.383337 0.449553
vt 0.341844 0.471731
vt 0.750000 0.490000
vt 0.796822 0.485388
vt 0.841844 0.471731
vt 0.883337 0.449553
vt 0.919706 0.419706
vt 0.949553 0.383337
vt 0.985388 0.296822
vt 0.985388 0.203178
vt 0.971731 0.158156
vt 0.949553 0.116663
vt 0.919706 0.080294
vt 0.883337 0.050447
vt 0.841844 0.028269
vt 0.796822 0.014612
vt 0.750000 0.010000
vt 0.703178 0.014612
vt 0.658156 0.028269
vt 0.616663 0.050447
vt 0.580294 0.080294
vt 0.550447 0.116663
vt 0.528269 0.158156
vt 0.514612 0.203178
vt 0.514612 0.296822
vt 0.550447 0.383337
vt 0.580294 0.419706
vt 0.616663 0.449553
vt 0.658156 0.471731
vt 0.703178 0.485388
vt 0.042154 0.130000
s 1
f 1/1/1 2/2/1 4/3/2 3/4/2
f 3/4/2 4/3/2 6/5/3 5/6/3
f 5/6/3 6/5/3 8/7/4 7/8/4
f 7/8/4 8/7/4 10/9/5 9/10/5
f 9/10/5 10/9/5 12/11/6 11/12/6
f 11/12/6 12/11/6 14/13/7 13/14/7
f 13/14/7 14/13/7 16/15/8 15/16/8
f 15/16/8 16/15/8 18/17/9 17/18/9
f 17/18/9 18/17/9 20/19/10 19/20/10
f 19/20/10 20/19/10 22/21/11 21/22/11
f 21/22/11 22/21/11 24/23/12 23/24/12
f 23/24/12 24/23/12 26/25/13 25/26/13
f 25/26/13 26/25/13 28/27/14 27/28/14
f 27/28/14 28/27/14 30/29/15 29/30/15
f 29/30/15 30/29/15 32/31/16 31/32/16
f 31/32/16 32/31/16 34/33/17 33/34/17
f 33/34/17 34/33/17 36/35/18 35/36/18
f 35/36/18 36/35/18 38/37/19 37/38/19
f 37/38/19 38/37/19 40/39/20 39/40/20
f 39/40/20 40/39/20 42/41/21 41/42/21
f 41/42/21 42/41/21 44/43/22 43/44/22
f 43/44/22 44/43/22 46/45/23 45/46/23
f 45/46/23 46/45/23 48/47/24 47/48/24
f 47/48/24 48/47/24 50/49/25 49/50/25
f 49/50/25 50/49/25 52/51/26 51/52/26
f 51/52/26 52/51/26 54/53/27 53/54/27
f 53/54/27 54/53/27 56/55/28 55/56/28
f 55/56/28 56/55/28 58/57/29 57/58/29
f 57/58/29 58/57/29 60/59/30 59/60/30
f 59/60/30 60/59/30 62/61/31 61/62/31
f 4/63/32 2/64/32 64/65/32 62/66/32 60/67/32 58/68/32 56/69/32 54/70/32 52/71/32 50/72/32 48/73/32 46/74/32 44/75/32 42/76/32 40/77/32 38/78/32 36/79/32 34/80/32 32/81/32 30/82/32 28/83/32 26/84/32 24/85/32 22/86/32 20/87/32 18/88/32 16/89/32 14/90/32 12/91/32 10/92/32 8/93/32 6/94/32
f 61/62/31 62/61/31 64/95/33 63/96/33
f 63/96/33 64/95/33 2/97/1 1/98/1
f 1/99/34 3/100/34 5/101/34 7/102/34 9/103/34 11/104/34 13/105/34 15/106/34 17/107/34 19/108/34 21/109/34 23/110/34 25/111/34 27/112/34 29/113/34 31/114/34 33/115/34 35/116/34 37/117/34 39/118/34 41/119/34 43/120/34 45/121/34 47/122/34 49/123/34 51/124/34 53/125/34 55/126/34 57/127/34 59/128/34 61/129/34 63/130/34
f 65/1/1 66/2/1 68/3/35 67/4/35
f 67/4/35 68/3/35 70/5/36 69/6/36
f 69/6/36 70/5/36 72/7/37 71/8/37
f 71/8/37 72/7/37 74/9/38 73/10/38
f 73/10/38 74/9/38 76/11/39 75/12/39
f 75/12/39 76/11/39 78/13/40 77/14/40
f 77/14/40 78/13/40 80/15/41 79/16/41
f 79/16/41 80/15/41 82/17/9 81/18/9
f 81/18/9 82/17/9 84/19/42 83/20/42
f 83/20/42 84/19/42 86/21/43 85/22/43
f 85/22/43 86/21/43 88/23/44 87/24/44
f 87/24/44 88/23/44 90/25/45 89/26/45
f 89/26/45 90/25/45 92/27/46 91/28/46
f 91/28/46 92/27/46 94/29/47 93/30/47
f 93/30/47 94/29/47 96/31/48 95/32/48
f 95/32/48 96/31/48 98/33/17 97/34/17
f 97/34/17 98/33/17 100/35/49 99/36/49
f 99/36/49 100/35/49 102/37/50 101/38/50
f 101/38/50 102/37/50 104/39/51 103/40/51
f 103/40/51 104/39/51 106/41/52 105/42/52
f 105/42/52 106/41/52 108/43/53 107/44/53
f 107/44/53 108/43/53 110/45/54 109/46/54
f 109/46/54 110/45/54 112/47/55 111/48/55
f 111/48/55 112/47/55 114/49/25 113/50/25
f 113/50/25 114/49/25 116/51/56 115/52/56
f 115/52/56 116/51/56 118/53/57 117/54/57
f 117/54/57 118/53/57 120/55/58 119/56/58
f 119/56/58 120/55/58 122/57/59 121/58/59
f 121/58/59 122/57/59 124/59/60 123/60/60
f 123/60/60 124/59/60 126/61/61 125/62/61
f 68/63/32 66/64/32 128/65/32 126/66/32 124/67/32 122/68/32 120/69/32 118/70/32 116/71/32 114/72/32 112/73/32 110/74/32 108/75/32 106/76/32 104/77/32 102/78/32 100/79/32 98/80/32 96/81/32 94/82/32 92/83/32 90/84/32 88/85/32 86/86/32 84/87/32 82/88/32 80/89/32 78/90/32 76/91/32 74/92/32 72/93/32 70/94/32
f 125/62/61 126/61/61 128/95/62 127/96/62
f 127/96/62 128/95/62 66/97/1 65/98/1
f 65/99/34 67/100/34 69/101/34 71/102/34 73/103/34 75/104/34 77/105/34 79/106/34 81/107/34 83/108/34 85/109/34 87/110/34 89/111/34 91/112/34 93/113/34 95/114/34 97/115/34 99/116/34 101/117/34 103/118/34 105/119/34 107/120/34 109/121/34 111/122/34 113/123/34 115/124/34 117/125/34 119/126/34 121/127/34 123/128/34 125/129/34 127/130/34
f 129/131/32 130/132/32 132/133/32 131/134/32
f 131/134/17 132/133/17 136/26/17 135/42/17
f 135/42/34 136/26/34 134/135/34 133/136/34
f 133/136/1 134/135/1 130/25/1 129/41/1
f 131/58/9 135/42/9 133/136/9 129/137/9
f 136/26/25 132/10/25 130/138/25 134/135/25
f 137/64/63 140/139/63 138/140/63
f 137/99/1 138/141/1 139/142/1
f 138/140/64 140/139/64 139/143/64
f 139/143/65 140/139/65 137/64/65
f 141/64/66 144/139/66 142/140/66
f 141/99/17 142/141/17 143/142/17
f 142/140/67 144/139/67 143/143/67
f 143/143/68 144/139/68 141/64/68
f 145/64/69 148/139/69 146/144/69
f 145/99/9 146/145/9 147/146/9
f 146/144/70 148/139/70 147/147/70
f 147/147/71 148/139/71 145/64/71
f 149/131/72 150/132/72 152/133/72 151/134/72
f 151/134/1 152/133/1 156/26/1 155/42/1
f 155/42/73 156/26/73 154/135/73 153/136/73
f 153/136/17 154/135/17 150/25/17 149/41/17
f 151/58/74 155/42/74 153/136/74 149/137/74
f 156/26/75 152/10/75 150/138/75 154/135/75
f 157/1/17 158/2/17 160/3/76 159/4/76
f 159/4/76 160/3/76 162/5/77 161/6/77
f 161/6/77 162/5/77 164/7/78 163/8/78
f 163/8/78 164/7/78 166/9/79 165/10/79
f 165/10/79 166/9/79 168/11/80 167/12/80
f 167/12/80 168/11/80 170/13/81 169/14/81
f 169/14/81 170/13/81 172/15/82 171/16/82
f 171/16/82 172/15/82 174/17/9 173/18/9
f 173/18/9 174/17/9 176/19/83 175/20/83
f 175/20/83 176/19/83 178/21/84 177/22/84
f 177/22/84 178/21/84 180/23/85 179/24/85
f 179/24/85 180/23/85 182/25/86 181/26/86
f 181/26/86 182/25/86 184/27/87 183/28/87
f 183/28/87 184/27/87 186/29/88 185/30/88
f 185/30/88 186/29/88 188/31/89 187/32/89
f 187/32/89 188/31/89 190/33/1 189/34/1
f 189/34/1 190/33/1 192/35/90 191/36/90
f 191/36/90 192/35/90 194/37/91 193/38/91
f 193/38/91 194/37/91 196/39/92 195/40/92
f 195/40/92 196/39/92 198/41/93 197/42/93
f 197/42/93 198/41/93 200/43/94 199/44/94
f 199/44/94 200/43/94 202/45/95 201/46/95
f 201/46/95 202/45/95 204/47/96 203/48/96
f 203/48/96 204/47/96 206/49/25 205/50/25
f 205/50/25 206/49/25 208/51/97 207/52/97
f 207/52/97 208/51/97 210/53/98 209/54/98
f 209/54/98 210/53/98 212/55/99 211/56/99
f 211/56/99 212/55/99 214/57/100 213/58/100
f 213/58/100 214/57/100 216/59/101 215/60/101
f 215/60/101 216/59/101 218/61/102 217/62/102
f 160/148/34 158/149/34 220/150/34 218/151/34 216/152/34 214/153/34 212/154/34 210/155/34 208/156/34 206/157/34 204/158/34 202/159/34 200/160/34 198/161/34 196/162/34 194/163/34 192/164/34 190/165/34 188/166/34 186/167/34 184/168/34 182/169/34 180/170/34 178/171/34 176/172/34 174/173/34 172/174/34 170/90/34 168/175/34 166/176/34 164/177/34 162/178/34
f 217/62/102 218/61/102 220/95/103 219/96/103
f 219/96/103 220/95/103 158/97/17 157/98/17
f 157/179/32 159/180/32 161/181/32 163/182/32 165/183/32 167/184/32 169/105/32 171/185/32 173/107/32 175/186/32 177/187/32 179/188/32 181/189/32 183/190/32 185/191/32 187/192/32 189/193/32 191/194/32 193/195/32 195/196/32 197/197/32 199/198/32 201/199/32 203/200/32 205/123/32 207/201/32 209/125/32 211/202/32 213/203/32 215/204/32 217/205/32 219/206/32
f 221/131/32 222/132/32 224/133/32 223/134/32
f 223/134/104 224/133/104 228/26/104 227/42/104
f 227/42/34 228/26/34 226/135/34 225/136/34
f 225/136/105 226/135/105 222/25/105 221/41/105
f 223/58/106 227/42/106 225/136/106 221/137/106
f 228/26/107 224/10/107 222/138/107 226/135/107
f 229/64/108 232/139/108 230/144/108
f 229/99/109 230/145/109 231/146/109
f 230/144/110 232/139/110 231/147/110
f 231/147/111 232/139/111 229/64/111
f 233/64/108 236/139/108 234/144/108
f 233/99/109 234/145/109 235/146/109
f 234/144/110 236/139/110 235/147/110
f 235/147/111 236/139/111 233/64/111
f 237/64/108 240/139/108 238/144/108
f 237/99/109 238/145/109 239/146/109
f 238/144/110 240/139/110 239/147/110
f 239/147/111 240/139/111 237/64/111
f 241/64/108 244/139/108 242/144/108
f 241/99/109 242/145/109 243/146/109
f 242/144/110 244/139/110 243/147/110
f 243/147/111 244/139/111 241/64/111
f 245/64/108 248/139/108 246/144/108
f 245/99/109 246/145/109 247/146/109
f 246/144/110 248/139/110 247/147/110
f 247/147/111 248/139/111 245/64/111
f 249/64/108 252/139/108 250/144/108
f 249/99/109 250/145/109 251/146/109
f 250/144/110 252/139/110 251/147/110
f 251/147/111 252/139/111 249/64/111
f 253/64/108 256/139/108 254/144/108
f 253/99/109 254/145/109 255/146/109
f 254/144/110 256/139/110 255/147/110
f 255/147/111 256/139/111 253/64/111
f 257/64/108 260/139/108 258/144/108
f 257/99/109 258/145/109 259/146/109
f 258/144/110 260/139/110 259/147/110
f 259/147/111 260/139/111 257/64/111
f 261/64/108 264/139/108 262/144/108
f 261/99/109 262/145/109 263/146/109
f 262/144/110 264/139/110 263/147/110
f 263/147/111 264/139/111 261/64/111
f 265/64/108 268/139/108 266/144/108
f 265/99/109 266/145/109 267/146/109
f 266/144/110 268/139/110 267/147/110
f 267/147/111 268/139/111 265/64/111
f 269/64/108 272/139/108 270/144/108
f 269/99/109 270/145/109 271/146/109
f 270/144/110 272/139/110 271/147/110
f 271/147/111 272/139/111 269/64/111
f 273/64/108 276/139/108 274/144/108
f 273/99/109 274/145/109 275/146/109
f 274/144/110 276/139/110 275/147/110
f 275/147/111 276/139/111 273/64/111
f 277/64/112 280/139/112 278/144/112
f 277/99/113 278/145/113 279/146/113
f 278/144/114 280/139/114 279/147/114
f 279/147/115 280/139/115 277/64/115
f 281/64/112 284/139/112 282/144/112
f 281/99/113 282/145/113 283/146/113
f 282/144/114 284/139/114 283/147/114
f 283/147/115 284/139/115 281/64/115
f 285/64/112 288/139/112 286/144/112
f 285/99/113 286/145/113 287/146/113
f 286/144/114 288/139/114 287/147/114
f 287/147/115 288/139/115 285/64/115
f 289/64/112 292/139/112 290/144/112
f 289/99/113 290/145/113 291/146/113
f 290/144/114 292/139/114 291/147/114
f 291/147/115 292/139/115 289/64/115
f 293/64/112 296/139/112 294/144/112
f 293/99/113 294/145/113 295/146/113
f 294/144/114 296/139/114 295/147/114
f 295/147/115 296/139/115 293/64/115
f 297/64/112 300/139/112 298/144/112
f 297/99/113 298/145/113 299/146/113
f 298/144/114 300/139/114 299/147/114
f 299/147/115 300/139/115 297/64/115
f 301/64/112 304/139/112 302/144/112
f 301/99/113 302/145/113 303/146/113
f 302/144/114 304/139/114 303/147/114
f 303/147/115 304/139/115 301/64/115
f 305/64/112 308/139/112 306/144/112
f 305/99/113 306/145/113 307/146/113
f 306/144/114 308/139/114 307/147/114
f 307/147/115 308/139/115 305/64/115
f 309/64/112 312/139/112 310/144/112
f 309/99/113 310/145/113 311/146/113
f 310/144/114 312/139/114 311/147/114
f 311/147/115 312/139/115 309/64/115
f 313/64/112 316/139/112 314/144/112
f 313/99/113 314/145/113 315/146/113
f 314/144/114 316/139/114 315/147/114
f 315/147/115 316/139/115 313/64/115
f 317/64/112 320/139/112 318/144/112
f 317/99/113 318/145/113 319/146/113
f 318/144/114 320/139/114 319/147/114
f 319/147/115 320/139/115 317/64/115
f 321/64/112 324/139/112 322/144/112
f 321/99/113 322/145/113 323/146/113
f 322/144/114 324/139/114 323/147/114
f 323/147/115 324/139/115 321/64/115
f 325/64/116 328/139/116 326/140/116
f 325/99/9 326/141/9 327/142/9
f 326/140/117 328/139/117 327/207/117
f 327/207/118 328/139/118 325/64/118
f 329/64/116 332/139/116 330/140/116
f 329/99/9 330/141/9 331/142/9
f 330/140/117 332/139/117 331/207/117
f 331/207/118 332/139/118 329/64/118
f 333/64/116 336/139/116 334/140/116
f 333/99/9 334/141/9 335/142/9
f 334/140/117 336/139/117 335/207/117
f 335/207/118 336/139/118 333/64/118
f 337/64/116 340/139/116 338/140/116
f 337/99/9 338/141/9 339/142/9
f 338/140/117 340/139/117 339/207/117
f 339/207/118 340/139/118 337/64/118
f 341/64/116 344/139/116 342/140/116
f 341/99/9 342/141/9 343/142/9
f 342/140/117 344/139/117 343/207/117
f 343/207/118 344/139/118 341/64/118
f 345/64/116 348/139/116 346/140/116
f 345/99/9 346/141/9 347/142/9
f 346/140/117 348/139/117 347/207/117
f 347/207/118 348/139/118 345/64/118
f 349/64/116 352/139/116 350/140/116
f 349/99/9 350/141/9 351/142/9
f 350/140/117 352/139/117 351/207/117
f 351/207/118 352/139/118 349/64/118
f 353/64/119 356/139/119 354/140/119
f 353/99/120 354/141/120 355/142/120
f 354/140/121 356/139/121 355/207/121
f 355/207/122 356/139/122 353/64/122
f 357/64/119 360/139/119 358/140/119
f 357/99/120 358/141/120 359/142/120
f 358/140/121 360/139/121 359/207/121
f 359/207/122 360/139/122 357/64/122
f 361/64/119 364/139/119 362/140/119
f 361/99/120 362/141/120 363/142/120
f 362/140/121 364/139/121 363/207/121
f 363/207/122 364/139/122 361/64/122
f 365/64/119 368/139/119 366/140/119
f 365/99/120 366/141/120 367/142/120
f 366/140/121 368/139/121 367/207/121
f 367/207/122 368/139/122 365/64/122
f 369/64/119 372/139/119 370/140/119
f 369/99/120 370/141/120 371/142/120
f 370/140/121 372/139/121 371/207/121
f 371/207/122 372/139/122 369/64/122
f 373/64/119 376/139/119 374/140/119
f 373/99/120 374/141/120 375/142/120
f 374/140/121 376/139/121 375/207/121
f 375/207/122 376/139/122 373/64/122
f 377/64/119 380/139/119 378/140/119
f 377/99/120 378/141/120 379/142/120
f 378/140/121 380/139/121 379/207/121
f 379/207/122 380/139/122 377/64/122
f 381/64/119 384/139/119 382/140/119
f 381/99/120 382/141/120 383/142/120
f 382/140/121 384/139/121 383/207/121
f 383/207/122 384/139/122 381/64/122
f 385/64/119 388/139/119 386/140/119
f 385/99/120 386/141/120 387/142/120
f 386/140/121 388/139/121 387/207/121
f 387/207/122 388/139/122 385/64/122
f 389/64/123 392/139/123 390/140/123
f 389/99/124 390/141/124 391/142/124
f 390/140/125 392/139/125 391/207/125
f 391/207/126 392/139/126 389/64/126
f 393/64/127 396/139/127 394/140/127
f 393/99/128 394/141/128 395/142/128
f 394/140/129 396/139/129 395/207/129
f 395/207/130 396/139/130 393/64/130
f 397/64/127 400/139/127 398/140/127
f 397/99/128 398/141/128 399/142/128
f 398/140/129 400/139/129 399/207/129
f 399/207/130 400/139/130 397/64/130
f 401/64/127 404/139/127 402/140/127
f 401/99/128 402/141/128 403/142/128
f 402/140/129 404/139/129 403/207/129
f 403/207/130 404/139/130 401/64/130
f 405/64/127 408/139/127 406/140/127
f 405/99/128 406/141/128 407/142/128
f 406/140/129 408/139/129 407/207/129
f 407/207/130 408/139/130 405/64/130
f 409/64/127 412/139/127 410/140/127
f 409/99/128 410/141/128 411/142/128
f 410/140/129 412/139/129 411/207/129
f 411/207/130 412/139/130 409/64/130
f 413/64/127 416/139/127 414/140/127
f 413/99/128 414/141/128 415/142/128
f 414/140/129 416/139/129 415/207/129
f 415/207/130 416/139/130 413/64/130
f 417/64/131 420/139/131 418/140/131
f 417/99/132 418/141/132 419/142/132
f 418/140/133 420/139/133 419/207/133
f 419/207/134 420/139/134 417/64/134
f 421/64/131 424/139/131 422/140/131
f 421/99/132 422/141/132 423/142/132
f 422/140/133 424/139/133 423/207/133
f 423/207/134 424/139/134 421/64/134
f 425/64/131 428/139/131 426/140/131
f 425/99/132 426/141/132 427/142/132
f 426/140/133 428/139/133 427/207/133
f 427/207/134 428/139/134 425/64/134
f 429/64/131 432/139/131 430/140/131
f 429/99/132 430/141/132 431/142/132
f 430/140/133 432/139/133 431/207/133
f 431/207/134 432/139/134 429/64/134
f 433/64/131 436/139/131 434/140/131
f 433/99/132 434/141/132 435/142/132
f 434/140/133 436/139/133 435/207/133
f 435/207/134 436/139/134 433/64/134
